<?xml version="1.0" encoding="UTF-8" standalone="no"?>
<!-- Created with Inkscape (http://www.inkscape.org/) -->

<svg
   width="960"
   height="80"
   viewBox="0 0 253.99999 21.166667"
   version="1.1"
   id="svg1"
   xml:space="preserve"
   inkscape:version="1.4.3 (0d15f75, 2025-12-25)"
   sodipodi:docname="Logo_SNES.svg"
   inkscape:export-filename="Logo_Famicom_1.png"
   inkscape:export-xdpi="96"
   inkscape:export-ydpi="96"
   xmlns:inkscape="http://www.inkscape.org/namespaces/inkscape"
   xmlns:sodipodi="http://sodipodi.sourceforge.net/DTD/sodipodi-0.dtd"
   xmlns="http://www.w3.org/2000/svg"
   xmlns:svg="http://www.w3.org/2000/svg"><sodipodi:namedview
     id="namedview1"
     pagecolor="#505050"
     bordercolor="#eeeeee"
     borderopacity="1"
     inkscape:showpageshadow="false"
     inkscape:pageopacity="0"
     inkscape:pagecheckerboard="true"
     inkscape:deskcolor="#505050"
     inkscape:document-units="mm"
     inkscape:zoom="2.0186728"
     inkscape:cx="493.39348"
     inkscape:cy="54.738935"
     inkscape:window-width="3440"
     inkscape:window-height="1351"
     inkscape:window-x="2551"
     inkscape:window-y="-9"
     inkscape:window-maximized="1"
     inkscape:current-layer="svg1" /><defs
     id="defs1" /><g
     id="g52"
     transform="matrix(0.21691749,0,0,0.21691749,62.930981,-43.86903)"><g
       id="g107">
	
	<g
   id="g95"
   style="display:none">
		<path
   style="fill:#007308"
   d="m 45.305,254.115 c 0,-4.63 7.41,-8.385 16.553,-8.385 9.157,0 16.567,3.756 16.567,8.385 0,4.644 -7.41,8.386 -16.567,8.386 -9.142,0.001 -16.553,-3.742 -16.553,-8.386 z"
   id="path92" />
		<path
   style="fill:#ffff00"
   d="m 75.908,269.635 c 0,-4.863 7.789,-8.808 17.398,-8.808 9.608,0 17.412,3.945 17.412,8.808 0,4.862 -7.804,8.808 -17.412,8.808 -9.61,0 -17.398,-3.946 -17.398,-8.808 z"
   id="path93" />
		<path
   style="fill:#0000f7"
   d="m 83.041,250.33 c 8.386,-0.32 15.097,-7.235 15.097,-15.709 0,-8.677 -7.046,-15.723 -15.723,-15.723 -8.619,0 -15.621,6.93 -15.724,15.534 0.204,-0.015 0.408,-0.015 0.626,-0.015 8.677,0 15.723,7.031 15.723,15.723 v 0.19 z"
   id="path94" />
		<path
   style="fill:#ff0800"
   d="m 113.629,265.864 c 8.167,-0.32 14.689,-7.046 14.689,-15.301 0,-8.459 -6.843,-15.316 -15.301,-15.316 -8.386,0 -15.199,6.755 -15.301,15.126 0.204,-0.015 0.407,-0.015 0.611,-0.015 8.444,0 15.301,6.857 15.301,15.316 v 0.19 z"
   id="path95" />
	</g>
	<polygon
   style="fill:#ff0000"
   points="367.282,260.259 359.668,260.259 362.798,241.857 370.412,241.857 371.488,236.15 363.875,236.15 367.209,219.262 374.823,219.262 375.9,212.507 361.487,212.507 350.743,267.014 366.204,267.014 "
   id="polygon95" />
	<polygon
   style="fill:#ff0000"
   points="228.918,260.259 221.304,260.259 224.434,241.857 232.048,241.857 233.125,236.15 225.511,236.15 228.845,219.262 236.459,219.262 237.536,212.507 223.124,212.507 212.38,267.014 227.84,267.014 "
   id="polygon96" />
	<polygon
   style="fill:#ff0000"
   points="341.324,219.262 345.604,219.262 337.116,267.014 344.978,267.014 353.582,219.262 357.717,219.262 358.78,212.507 342.62,212.507 "
   id="polygon97" />
	<polygon
   style="fill:#ff0000"
   points="368.563,267.014 376.483,267.014 382.859,235.407 385.378,267.014 392.25,267.014 402.601,212.507 394.681,212.507 389.352,240.969 385.786,212.507 378.914,212.507 "
   id="polygon98" />
	<polygon
   style="fill:#ff0000"
   points="267.934,267.014 275.854,267.014 282.231,235.407 284.75,267.014 291.621,267.014 301.972,212.507 294.052,212.507 288.724,240.969 285.157,212.507 278.285,212.507 "
   id="polygon99" />
	<polygon
   style="fill:#ff0000"
   points="305.67,267.014 313.59,267.014 319.966,235.407 322.485,267.014 329.357,267.014 339.708,212.507 331.787,212.507 326.46,240.969 322.893,212.507 316.021,212.507 "
   id="polygon100" />
	<polygon
   style="fill:#ff0000"
   points="295.188,267.014 302.059,267.014 312.411,212.507 305.539,212.507 "
   id="polygon101" />
	<path
   style="fill:#ff0000"
   d="m 429.359,217.937 -7.701,44.01 c -0.496,2.81 1.412,5.066 4.236,5.066 h 11.298 c 2.839,0 5.561,-2.256 6.085,-5.066 l 8.342,-44.01 c 0.568,-2.999 -1.354,-5.43 -4.294,-5.43 h -11.691 c -2.941,0 -5.751,2.431 -6.275,5.43 z m 6.712,4.528 c 0.349,-2.024 1.747,-3.669 3.771,-3.669 2.024,0 3.392,1.645 3.042,3.669 l -6.42,35.639 c -0.35,2.023 -2.272,3.669 -4.295,3.669 -2.024,0 -2.868,-1.646 -2.519,-3.669 z"
   id="path101" />
	<path
   style="fill:#ff0000"
   d="m 172.3,260.579 8.517,-48.072 h -6.886 l -8.56,49.44 c -0.496,2.81 1.412,5.066 4.236,5.066 h 10.249 c 2.839,0 5.562,-2.256 6.086,-5.066 l 9.171,-49.44 h -6.434 l -8.735,48.072 c -0.131,0.699 -0.815,1.266 -1.514,1.266 h -5.066 c -0.715,10e-4 -1.181,-0.567 -1.064,-1.266 z"
   id="path102" />
	<path
   style="fill:#ff0000"
   d="m 406.168,212.507 -10.351,54.507 h 15.694 c 2.839,0 5.561,-2.256 6.086,-5.066 l 8.342,-44.01 c 0.567,-2.999 -1.354,-5.43 -4.295,-5.43 h -15.476 z m -2.141,49.267 8.037,-42.977 h 3.144 c 2.024,0 3.393,1.645 3.043,3.669 l -6.783,35.639 c -0.35,2.023 -2.272,3.669 -4.296,3.669 z"
   id="path103" />
	<path
   style="fill:#ff0000"
   d="m 200.994,236.193 0.015,-0.291 c -0.015,0.102 -0.015,0.204 -0.015,0.291 z m 4.498,-23.686 h -6.871 l -10.351,54.507 h 6.871 l 4.688,-24.676 h 8.735 c 2.839,0 5.561,-2.271 6.085,-5.066 l 3.742,-19.334 c 0.567,-2.999 -1.354,-5.43 -4.295,-5.43 h -8.604 z m -3.42,24.662 c -0.611,0 -1.034,-0.407 -1.078,-0.976 0,-0.087 0,-0.189 0.015,-0.291 l 3.173,-16.481 c 0.292,-0.247 0.656,-0.407 1.02,-0.407 h 3.348 c 0.728,0 2.257,1.645 2.126,2.387 l -2.854,13.452 c -0.131,0.699 -1.033,2.315 -1.732,2.315 h -4.018 z"
   id="path104" />
	<path
   style="fill:#ff0000"
   d="m 243.971,236.193 0.015,-0.291 c -0.015,0.102 -0.015,0.204 -0.015,0.291 z m 8.036,5.198 h -0.437 c 1.965,-0.772 5.663,-2.039 6.056,-4.12 l 3.742,-19.334 c 0.568,-2.999 -1.354,-5.43 -4.295,-5.43 h -8.604 -6.871 l -10.351,54.507 h 6.872 l 4.688,-24.676 h 4.877 c 0.64,0.597 0.699,1.703 0.786,2.256 0.132,0.801 0.262,1.82 0.161,2.621 -0.087,0.8 -3.756,19.799 -3.756,19.799 h 6.871 c 0,0 3.888,-20.688 3.888,-21.022 0.014,-0.335 0.014,-1.412 -0.364,-1.995 -0.248,-0.378 -0.699,-1.266 -1.195,-1.587 -0.961,-0.611 -2.068,-1.019 -2.068,-1.019 z m -4.848,-21.969 c 0.291,-0.247 0.655,-0.407 1.019,-0.407 h 3.13 c 0.728,0 2.256,1.645 2.111,2.387 l -2.839,13.452 c -0.131,0.699 -1.863,2.315 -2.562,2.315 h -2.97 c -0.612,0 -1.034,-0.407 -1.078,-0.976 0,-0.087 0,-0.189 0.015,-0.291 z"
   id="path105" />
	<path
   style="fill:#ff0000"
   d="m 207.997,279.506 h 0.655 c 0.16,0 0.538,-0.35 0.567,-0.51 l 0.626,-2.984 c 0.029,-0.175 -0.306,-0.539 -0.466,-0.539 h -0.685 c -0.087,0 -0.175,0.044 -0.233,0.102 l -0.699,3.654 c 0,0.029 0,0.043 0,0.072 0.002,0.117 0.104,0.205 0.235,0.205 z m 31.301,2.678 h 0.874 l 0.291,-3.072 z M 139.004,271.731 v 17.819 h 306.079 v -17.819 z m 36.279,14.413 1.879,-10.613 h -0.947 l 0.291,-1.499 h 3.567 l -0.232,1.499 h -0.918 l -1.892,10.613 z m 46.108,0 1.878,-10.613 h -0.947 l 0.291,-1.499 h 3.567 l -0.233,1.499 h -0.917 l -1.893,10.613 z m -78.136,0 2.374,-12.113 h 3.188 l -0.233,1.499 h -1.689 l -0.728,3.756 h 1.675 l -0.233,1.267 h -1.689 l -0.684,4.09 h 1.674 l -0.233,1.5 h -3.422 z m 160.115,0 2.373,-12.113 h 3.188 l -0.233,1.499 h -1.689 l -0.743,3.756 h 1.689 l -0.234,1.267 h -1.689 l -0.699,4.09 h 1.689 l -0.233,1.5 H 303.37 Z M 163.914,274.031 h 1.762 l -2.3,12.113 h -1.514 l -0.553,-7.032 -1.413,7.032 h -1.747 l 2.285,-12.113 h 1.514 l 0.801,6.318 z m 172.11,12.113 1.878,-10.613 h -0.946 l 0.291,-1.499 h 3.567 l -0.233,1.499 h -0.917 l -1.892,10.613 z m -64.013,-12.113 h 1.747 l -2.285,12.113 h -1.529 l -0.553,-7.032 -1.412,7.032 h -1.747 l 2.286,-12.113 h 1.53 l 0.786,6.318 z m 52.774,0 h 1.747 l -2.286,12.113 h -1.514 l -0.568,-7.032 -1.412,7.032 h -1.747 l 2.3,-12.113 h 1.514 l 0.787,6.318 z m -68.527,0 -2.301,12.113 h -1.514 l 2.286,-12.113 z m 35.421,0.059 1.936,-0.029 -2.053,12.083 h -1.514 l 0.976,-6.406 -2.693,6.406 h -1.062 l -0.32,-6.566 -1.18,6.566 h -1.747 l 2.286,-12.113 h 1.98 l 0.334,7.017 z m -101.909,12.054 2.373,-12.113 h 3.188 l -0.232,1.499 h -1.689 l -0.742,3.756 h 1.688 l -0.232,1.267 h -1.689 l -0.699,4.09 h 1.689 l -0.233,1.5 h -3.422 z m 19.77,-5.576 c 0,0 0.655,0.103 0.713,0.233 0.073,0.131 0.087,0.481 0.087,0.553 0,0.073 -0.859,4.79 -0.859,4.79 h -1.528 c 0,0 0.815,-4.222 0.844,-4.397 0.015,-0.189 -0.014,-0.408 -0.043,-0.582 -0.014,-0.131 -0.029,-0.379 -0.175,-0.51 h -1.077 l -1.033,5.489 h -1.514 l 2.285,-12.113 h 1.514 1.908 c 0.64,0 1.077,0.538 0.946,1.209 l -0.829,4.295 c -0.087,0.466 -0.903,0.858 -1.339,1.033 z m 167.569,-0.378 -0.786,-6.624 h 1.951 l 0.233,4.601 2.504,-4.601 h 1.894 l -3.931,7.003 -0.975,5.111 h -1.747 z m 61.917,-6.567 1.922,-0.029 -2.052,12.084 h -1.514 l 0.975,-6.406 -2.694,6.406 h -1.048 l -0.335,-6.567 -1.18,6.567 h -1.747 l 2.286,-12.113 h 1.994 l 0.321,7.018 z m -33.892,12.056 1.878,-10.613 h -0.947 l 0.278,-1.5 h 3.581 l -0.233,1.5 h -0.917 l -1.908,10.613 z m 12.913,0 2.374,-12.113 h 3.189 l -0.247,1.5 h -1.675 l -0.742,3.756 h 1.689 l -0.233,1.266 h -1.689 l -0.698,4.09 h 1.689 l -0.233,1.5 h -3.424 z m -55.162,-10.905 c 0.117,-0.67 0.728,-1.209 1.383,-1.209 h 2.358 c 0.641,0 1.078,0.538 0.947,1.209 l -0.568,2.984 h -1.471 l 0.335,-1.98 c 0.073,-0.451 -0.218,-0.815 -0.67,-0.815 -0.452,0 -0.874,0.364 -0.946,0.815 l -0.247,1.441 c -0.044,0.087 0.072,0.495 0.146,0.539 0.203,0.116 2.096,3.261 2.096,3.494 0.044,0.117 0.073,0.189 0.059,0.232 -0.059,0.393 -0.583,3.072 -0.583,3.072 -0.116,0.611 -0.713,1.121 -1.339,1.121 h -2.272 c -0.625,0 -1.047,-0.51 -0.931,-1.121 l 0.538,-3.072 h 1.587 l -0.408,2.213 c -0.072,0.451 0.233,0.815 0.685,0.815 0.436,0 0.874,-0.364 0.946,-0.815 l 0.306,-1.791 c -0.292,-0.742 -2.184,-3.42 -2.3,-4.062 -0.087,-0.072 -0.131,-0.466 -0.117,-0.757 0.015,-0.319 0.466,-2.313 0.466,-2.313 z m 29.874,0 c 0.117,-0.67 0.728,-1.209 1.383,-1.209 h 2.358 c 0.641,0 1.063,0.538 0.946,1.209 l -0.568,2.984 h -1.471 l 0.335,-1.98 c 0.073,-0.451 -0.219,-0.815 -0.67,-0.815 -0.451,0 -0.874,0.364 -0.946,0.815 l -0.247,1.441 c -0.058,0.087 0.058,0.495 0.145,0.539 0.19,0.116 2.082,3.261 2.082,3.494 0.058,0.117 0.073,0.189 0.073,0.232 -0.073,0.393 -0.583,3.072 -0.583,3.072 -0.116,0.611 -0.713,1.121 -1.339,1.121 h -2.272 c -0.625,0 -1.048,-0.51 -0.931,-1.121 l 0.524,-3.072 h 1.587 l -0.393,2.213 c -0.072,0.451 0.233,0.815 0.67,0.815 0.452,0 0.874,-0.364 0.961,-0.815 l 0.306,-1.791 c -0.292,-0.742 -2.184,-3.42 -2.301,-4.062 -0.087,-0.072 -0.131,-0.466 -0.117,-0.757 0.017,-0.319 0.468,-2.313 0.468,-2.313 z m -150.273,-0.743 -0.641,12.113 h -2.038 l 0.261,-2.795 h -1.208 l -1.063,2.795 h -1.805 l 4.455,-12.113 z"
   id="path106" />
	<path
   style="fill:#ff0000"
   d="m 147.914,217.937 c 0,0 -2.038,8.983 -2.096,10.424 -0.058,1.31 0.131,3.087 0.539,3.422 0.524,2.883 10.118,16.218 9.841,18.256 -0.262,2.038 -1.368,8.066 -1.368,8.066 -0.349,2.023 -1.747,3.669 -3.77,3.669 -2.024,0 -3.392,-1.646 -3.044,-3.669 l 1.791,-9.959 h -7.177 l -2.417,13.801 c -0.495,2.81 1.413,5.066 4.237,5.066 h 10.249 c 2.838,0 5.561,-2.256 6.085,-5.066 0,0 2.635,-12.884 2.62,-13.801 -0.015,-0.917 -0.291,-1.019 -0.291,-1.019 v -0.029 c 0,-1.049 -8.56,-15.199 -9.434,-15.724 -0.378,-0.218 -0.669,-1.587 -0.684,-2.431 -0.015,-0.844 1.106,-6.478 1.106,-6.478 0.349,-2.024 2.271,-3.669 4.295,-3.669 2.023,0 2.867,1.645 2.519,3.669 l -1.544,8.909 h 7.206 l 2.547,-13.438 c 0.568,-2.999 -1.353,-5.43 -4.294,-5.43 h -10.642 c -2.94,0.001 -5.75,2.432 -6.274,5.431 z"
   id="path107" />
</g></g></svg>
