<?xml version="1.0" encoding="UTF-8" standalone="no"?>
<!-- Created with Inkscape (http://www.inkscape.org/) -->

<svg
   width="960"
   height="80"
   viewBox="0 0 253.99999 21.166667"
   version="1.1"
   id="svg1"
   xml:space="preserve"
   inkscape:version="1.4.3 (0d15f75, 2025-12-25)"
   sodipodi:docname="Logo_GameBoyAdvance_Outlined.svg"
   xmlns:inkscape="http://www.inkscape.org/namespaces/inkscape"
   xmlns:sodipodi="http://sodipodi.sourceforge.net/DTD/sodipodi-0.dtd"
   xmlns="http://www.w3.org/2000/svg"
   xmlns:svg="http://www.w3.org/2000/svg"><sodipodi:namedview
     id="namedview1"
     pagecolor="#505050"
     bordercolor="#eeeeee"
     borderopacity="1"
     inkscape:showpageshadow="false"
     inkscape:pageopacity="0"
     inkscape:pagecheckerboard="true"
     inkscape:deskcolor="#505050"
     inkscape:document-units="mm"
     inkscape:zoom="2.0186728"
     inkscape:cx="432.46236"
     inkscape:cy="83.966059"
     inkscape:window-width="3440"
     inkscape:window-height="1351"
     inkscape:window-x="2551"
     inkscape:window-y="-9"
     inkscape:window-maximized="1"
     inkscape:current-layer="svg1" /><defs
     id="defs1" /><g
     id="g1"
     transform="matrix(0.36704255,0,0,0.36704255,53.274981,2.0025783)"
     inkscape:label="GBA_Logo"><path
       fill="#1f00cc"
       d="m 141.1,0.9 c 5.1,0 8.2,2.2 11.2,5.8 1.1,-1 2.2,-1.9 3.5,-2.7 3.1,-2 6.6,-3 10.1,-3 h 47 l -3.1,4.9 59,-0.1 5.4,9.3 4.8,-9.2 h 39.2 l 9.7,7.6 V 5.9 h 73.8 v 35.3 h -68.1 l -9.9,-7.7 v 7.7 h -55.2 v 0 l -3.7,-6.1 c -3,3.4 -8.4,6.1 -17.3,6.1 h -49 c -1.6,1.6 -3.3,1.8 -5.3,1.7 l -0.5,3.2 h -18.9 l 0.4,-2.7 c -0.2,0.1 -0.4,0.3 -0.6,0.4 -4.4,2.7 -9.4,3.6 -14.1,2.5 -3.6,-0.8 -6.8,-2.8 -9.2,-5.4 -3.2,3.1 -7.5,5.2 -11.6,5.2 l -92.9,0.1 -1.5,-8.5 -3.8,8.5 H 25 C 20.1,47 15.2,46.3 10.8,44.1 4.8,40.9 0.8,35.3 0.2,29 -0.9,18.5 3.2,10.1 11.8,4.8 20.1,-0.3 28.9,-1.4 38,1.8 L 39.7,2.4 40.3,1 H 57.7 L 59,8.8 61.6,0.9 h 79.5"
       id="path1"
       style="display:inline;fill:#50407f;fill-opacity:1"
       inkscape:label="outline" /><path
       fill="#ffffff"
       d="m 246.4,29.6 h -6.2 V 17 h 8.8 c 4.7,0 7,1.9 7,6 0,5 -2.5,6.6 -9.6,6.6 m 43.3,-17.9 h -7.2 l -0.2,0.4 -8.1,14.9 -8.7,-14.9 -0.2,-0.3 h -7.7 l 0.6,1 1.5,2.4 c -2.4,-2.3 -6,-3.5 -10.7,-3.5 h -15.5 v 19.4 l -11.5,-19 -0.2,-0.3 h -5.9 l -0.2,0.3 -13.1,22 -0.6,1 h 5.1 v 0 h 11.4 v -5.2 h -6.7 l 6.7,-12.1 9.5,16.9 0.2,0.3 h 7.6 v 0 h 11.7 c 10.1,0 15.3,-4 15.3,-11.8 0,-1.4 -0.2,-2.6 -0.5,-3.7 l 9.2,15.2 0.2,0.3 h 4.5 l 0.2,-0.3 12.7,-22 0.6,-1"
       id="path2" /><polyline
       fill="#ffffff"
       points="334.4,11.7 333.7,11.7 333.7,25.6 316.2,11.9 316,11.7 311.4,11.7 311.4,31.1 299.9,12.1   299.7,11.7 293.8,11.7 293.6,12.1 280.5,34 279.9,35.1 286.9,35.1 286.9,35.1 296.5,35.1 296.5,29.9 289.8,29.9 296.5,17.8   306,34.7 306.2,35.1 313.8,35.1 313.8,35.1 317.6,35.1 317.6,21 335.1,34.9 335.3,35.1 339.9,35.1 339.9,11.7 334.4,11.7 "
       id="polyline2" /><path
       fill="#ffffff"
       d="m 362.1,11.7 h -13.7 c -4.8,0 -6.4,1.5 -6.4,5.9 v 11.6 c 0,4.4 1.6,5.9 6.4,5.9 h 13.7 c 4.8,0 6.4,-1.5 6.4,-5.9 v -3.3 h -0.7 -5.4 -0.7 v 3.6 H 348.6 V 17.2 h 13.1 v 3.2 h 0.7 6.1 v -2.8 c 0,-4.5 -1.6,-5.9 -6.4,-5.9"
       id="path3" /><polyline
       fill="#ffffff"
       points="395.2,29.6 377.4,29.6 377.4,25.5 388.1,25.5 388.1,20.4 377.4,20.4 377.4,17 395.6,17 395.6,11.7   370.7,11.7 370.7,35.1 395.9,35.1 395.9,29.6 395.2,29.6 "
       id="polyline3" /><path
       fill="#ffffff"
       d="m 43.8,23.6 2.9,-6.5 1.3,6.5 H 43.8 M 83.7,6.7 75.9,25 72.6,6.7 h -6.8 l -8.8,27 -4.5,-27 h -8.4 l -12.8,29 1.9,-12.1 H 20.5 l -1,6.2 h 5.3 l -0.6,3.3 C 21.2,34.4 16,34 13.8,30 12.4,27.5 11.1,21.9 17,16.8 c 4.8,-4.2 13.1,-4.9 17.9,-2.7 0,0 0.6,-3.5 1.1,-6.8 C 26.8,4.1 19.6,6.8 14.8,9.7 8.3,13.7 5.2,19.9 6,28.3 7,38 19.5,44.1 30.2,38 c 0.1,-0.1 0.2,-0.1 0.2,-0.1 l -1,2.3 h 7.2 l 4.5,-10 H 49 l 1.7,10 H 62.3 L 68.2,21.6 72,40.2 h 4.6 l 8.9,-20.6 0.9,20.6 h 6.8 L 91.9,6.7 h -8.2"
       id="path4" /><polyline
       fill="#ffffff"
       points="93.9,40.1 113,40.1 114.1,32.9 102.1,32.9 103.1,27 113.5,27 114.6,19.8 104.1,19.8 105,13.9   117,13.9 118.1,6.7 99.2,6.7 93.9,40.1 "
       id="polyline4" /><polyline
       fill="#ffffff"
       points="187.1,17.6 182.9,6.7 175,6.7 183.1,24.3 180.6,40.1 187.5,40.1 189.6,26.1 201.9,6.7 193.9,6.7   187.1,17.6 "
       id="polyline5" /><path
       fill="#ffffff"
       d="m 171.1,26.6 c -1.8,5.5 -6.3,8.7 -9.9,7.1 -3.6,-1.6 -5,-7.4 -3.2,-13 1.8,-5.5 6.3,-8.7 9.9,-7.1 3.7,1.7 5.1,7.5 3.2,13 M 168.5,7 c -7.6,-1.7 -15.5,4.3 -17.6,13.5 -2.1,9.2 2.3,18.1 9.9,19.9 7.6,1.8 15.5,-4.3 17.6,-13.5 C 180.5,17.7 176,8.8 168.5,7"
       id="path5" /><path
       fill="#ffffff"
       d="m 138.1,20.1 c -3.8,0 -4.8,0 -4.8,0 l 1.1,-6.2 c 0,0 0.1,0 4.4,0 4.9,0 4,6.2 -0.7,6.2 m -0.8,13.5 c -3.8,0 -6,0 -6,0 l 1.1,-6.6 c 0,0 1.4,0 5.7,0 5.4,-0.1 5.3,6.6 -0.8,6.6 m 4,-26.7 c -3.7,-0.1 -12.8,0 -12.8,0 h 0.1 L 123.3,40 c 0,0 10.9,0 15.4,0 6.3,0 15.6,-9.3 7.2,-17 8.6,-9 0,-16 -4.6,-16.1"
       id="path6" /><path
       fill="#ffffff"
       d="m 193.3,36.9 v -1.3 h 1.1 c 0.5,0 0.9,0.1 0.9,0.6 0,0.8 -0.8,0.7 -1.3,0.7 h -0.7 m 1.3,0.4 c 0.7,0 1.2,-0.3 1.2,-1.1 0,-0.3 -0.2,-0.7 -0.4,-0.8 -0.3,-0.2 -0.6,-0.2 -0.9,-0.2 h -1.7 v 3.9 h 0.5 v -1.7 h 0.8 l 1.1,1.7 h 0.6 l -1.2,-1.8 m -0.4,3.3 c 1.9,0 3.5,-1.5 3.5,-3.5 0,-1.9 -1.5,-3.4 -3.5,-3.4 -1.9,0 -3.5,1.5 -3.5,3.4 0,2 1.5,3.5 3.5,3.5 m 0,-0.6 c -1.6,0 -2.9,-1.2 -2.9,-2.9 0,-1.6 1.3,-2.9 2.9,-2.9 1.6,0 2.9,1.3 2.9,2.9 -0.1,1.7 -1.3,2.9 -2.9,2.9"
       id="path7"
       style="display:none"
       inkscape:label="r_mark" /></g></svg>
