<?xml version="1.0" encoding="UTF-8" standalone="no"?>
<!-- Created with Inkscape (http://www.inkscape.org/) -->

<svg
   width="960"
   height="80"
   viewBox="0 0 253.99999 21.166667"
   version="1.1"
   id="svg1"
   xml:space="preserve"
   inkscape:version="1.4.3 (0d15f75, 2025-12-25)"
   sodipodi:docname="Logo_GameBoyAdvance_Pkmn_2.svg"
   inkscape:export-filename="Logo_GameBoyAdvance_Pkmn_2.png"
   inkscape:export-xdpi="96"
   inkscape:export-ydpi="96"
   xmlns:inkscape="http://www.inkscape.org/namespaces/inkscape"
   xmlns:sodipodi="http://sodipodi.sourceforge.net/DTD/sodipodi-0.dtd"
   xmlns="http://www.w3.org/2000/svg"
   xmlns:svg="http://www.w3.org/2000/svg"><sodipodi:namedview
     id="namedview1"
     pagecolor="#505050"
     bordercolor="#eeeeee"
     borderopacity="1"
     inkscape:showpageshadow="false"
     inkscape:pageopacity="0"
     inkscape:pagecheckerboard="true"
     inkscape:deskcolor="#505050"
     inkscape:document-units="mm"
     inkscape:zoom="2.0186728"
     inkscape:cx="468.62473"
     inkscape:cy="20.062687"
     inkscape:window-width="3440"
     inkscape:window-height="1351"
     inkscape:window-x="2551"
     inkscape:window-y="-9"
     inkscape:window-maximized="1"
     inkscape:current-layer="svg1" /><defs
     id="defs1" /><style
     type="text/css"
     id="style1">
	.st0{fill:#FCD20B;}
	.st1{fill:#ED1C24;}
	.st2{fill:#FFFFFF;}
	.st3{fill:#765241;}
</style><g
     id="g2"
     style="fill:#f9ff14;fill-opacity:1"><g
       id="g1"
       transform="matrix(0.45896038,0,0,0.45896038,34.80028,-0.10327913)"
       inkscape:label="GBA_Logo"
       style="fill:#f9ff14;fill-opacity:1"><path
         fill="#1f00cc"
         d="m 141.1,0.9 c 5.1,0 8.2,2.2 11.2,5.8 1.1,-1 2.2,-1.9 3.5,-2.7 3.1,-2 6.6,-3 10.1,-3 h 47 l -3.1,4.9 59,-0.1 5.4,9.3 4.8,-9.2 h 39.2 l 9.7,7.6 V 5.9 h 73.8 v 35.3 h -68.1 l -9.9,-7.7 v 7.7 h -55.2 v 0 l -3.7,-6.1 c -3,3.4 -8.4,6.1 -17.3,6.1 h -49 c -1.6,1.6 -3.3,1.8 -5.3,1.7 l -0.5,3.2 h -18.9 l 0.4,-2.7 c -0.2,0.1 -0.4,0.3 -0.6,0.4 -4.4,2.7 -9.4,3.6 -14.1,2.5 -3.6,-0.8 -6.8,-2.8 -9.2,-5.4 -3.2,3.1 -7.5,5.2 -11.6,5.2 l -92.9,0.1 -1.5,-8.5 -3.8,8.5 H 25 C 20.1,47 15.2,46.3 10.8,44.1 4.8,40.9 0.8,35.3 0.2,29 -0.9,18.5 3.2,10.1 11.8,4.8 20.1,-0.3 28.9,-1.4 38,1.8 L 39.7,2.4 40.3,1 H 57.7 L 59,8.8 61.6,0.9 h 79.5"
         id="path1"
         style="display:none;fill:#f9ff14;fill-opacity:1"
         inkscape:label="outline" /><path
         fill="#ffffff"
         d="m 246.4,29.6 h -6.2 V 17 h 8.8 c 4.7,0 7,1.9 7,6 0,5 -2.5,6.6 -9.6,6.6 m 43.3,-17.9 h -7.2 l -0.2,0.4 -8.1,14.9 -8.7,-14.9 -0.2,-0.3 h -7.7 l 0.6,1 1.5,2.4 c -2.4,-2.3 -6,-3.5 -10.7,-3.5 h -15.5 v 19.4 l -11.5,-19 -0.2,-0.3 h -5.9 l -0.2,0.3 -13.1,22 -0.6,1 h 5.1 v 0 h 11.4 v -5.2 h -6.7 l 6.7,-12.1 9.5,16.9 0.2,0.3 h 7.6 v 0 h 11.7 c 10.1,0 15.3,-4 15.3,-11.8 0,-1.4 -0.2,-2.6 -0.5,-3.7 l 9.2,15.2 0.2,0.3 h 4.5 l 0.2,-0.3 12.7,-22 0.6,-1"
         id="path2"
         style="fill:#f9ff14;fill-opacity:1" /><polyline
         fill="#ffffff"
         points="334.4,11.7 333.7,11.7 333.7,25.6 316.2,11.9 316,11.7 311.4,11.7 311.4,31.1 299.9,12.1   299.7,11.7 293.8,11.7 293.6,12.1 280.5,34 279.9,35.1 286.9,35.1 286.9,35.1 296.5,35.1 296.5,29.9 289.8,29.9 296.5,17.8   306,34.7 306.2,35.1 313.8,35.1 313.8,35.1 317.6,35.1 317.6,21 335.1,34.9 335.3,35.1 339.9,35.1 339.9,11.7 334.4,11.7 "
         id="polyline2"
         style="fill:#f9ff14;fill-opacity:1" /><path
         fill="#ffffff"
         d="m 362.1,11.7 h -13.7 c -4.8,0 -6.4,1.5 -6.4,5.9 v 11.6 c 0,4.4 1.6,5.9 6.4,5.9 h 13.7 c 4.8,0 6.4,-1.5 6.4,-5.9 v -3.3 h -0.7 -5.4 -0.7 v 3.6 H 348.6 V 17.2 h 13.1 v 3.2 h 0.7 6.1 v -2.8 c 0,-4.5 -1.6,-5.9 -6.4,-5.9"
         id="path3"
         style="fill:#f9ff14;fill-opacity:1" /><polyline
         fill="#ffffff"
         points="395.2,29.6 377.4,29.6 377.4,25.5 388.1,25.5 388.1,20.4 377.4,20.4 377.4,17 395.6,17 395.6,11.7   370.7,11.7 370.7,35.1 395.9,35.1 395.9,29.6 395.2,29.6 "
         id="polyline3"
         style="fill:#f9ff14;fill-opacity:1" /><path
         fill="#ffffff"
         d="m 43.8,23.6 2.9,-6.5 1.3,6.5 H 43.8 M 83.7,6.7 75.9,25 72.6,6.7 h -6.8 l -8.8,27 -4.5,-27 h -8.4 l -12.8,29 1.9,-12.1 H 20.5 l -1,6.2 h 5.3 l -0.6,3.3 C 21.2,34.4 16,34 13.8,30 12.4,27.5 11.1,21.9 17,16.8 c 4.8,-4.2 13.1,-4.9 17.9,-2.7 0,0 0.6,-3.5 1.1,-6.8 C 26.8,4.1 19.6,6.8 14.8,9.7 8.3,13.7 5.2,19.9 6,28.3 7,38 19.5,44.1 30.2,38 c 0.1,-0.1 0.2,-0.1 0.2,-0.1 l -1,2.3 h 7.2 l 4.5,-10 H 49 l 1.7,10 H 62.3 L 68.2,21.6 72,40.2 h 4.6 l 8.9,-20.6 0.9,20.6 h 6.8 L 91.9,6.7 h -8.2"
         id="path4"
         style="fill:#f9ff14;fill-opacity:1" /><polyline
         fill="#ffffff"
         points="93.9,40.1 113,40.1 114.1,32.9 102.1,32.9 103.1,27 113.5,27 114.6,19.8 104.1,19.8 105,13.9   117,13.9 118.1,6.7 99.2,6.7 93.9,40.1 "
         id="polyline4"
         style="fill:#f9ff14;fill-opacity:1" /><polyline
         fill="#ffffff"
         points="187.1,17.6 182.9,6.7 175,6.7 183.1,24.3 180.6,40.1 187.5,40.1 189.6,26.1 201.9,6.7 193.9,6.7   187.1,17.6 "
         id="polyline5"
         style="fill:#f9ff14;fill-opacity:1" /><path
         fill="#ffffff"
         d="m 171.1,26.6 c -1.8,5.5 -6.3,8.7 -9.9,7.1 -3.6,-1.6 -5,-7.4 -3.2,-13 1.8,-5.5 6.3,-8.7 9.9,-7.1 3.7,1.7 5.1,7.5 3.2,13 M 168.5,7 c -7.6,-1.7 -15.5,4.3 -17.6,13.5 -2.1,9.2 2.3,18.1 9.9,19.9 7.6,1.8 15.5,-4.3 17.6,-13.5 C 180.5,17.7 176,8.8 168.5,7"
         id="path5"
         style="fill:#f9ff14;fill-opacity:1" /><path
         fill="#ffffff"
         d="m 138.1,20.1 c -3.8,0 -4.8,0 -4.8,0 l 1.1,-6.2 c 0,0 0.1,0 4.4,0 4.9,0 4,6.2 -0.7,6.2 m -0.8,13.5 c -3.8,0 -6,0 -6,0 l 1.1,-6.6 c 0,0 1.4,0 5.7,0 5.4,-0.1 5.3,6.6 -0.8,6.6 m 4,-26.7 c -3.7,-0.1 -12.8,0 -12.8,0 h 0.1 L 123.3,40 c 0,0 10.9,0 15.4,0 6.3,0 15.6,-9.3 7.2,-17 8.6,-9 0,-16 -4.6,-16.1"
         id="path6"
         style="fill:#f9ff14;fill-opacity:1" /><path
         fill="#ffffff"
         d="m 193.3,36.9 v -1.3 h 1.1 c 0.5,0 0.9,0.1 0.9,0.6 0,0.8 -0.8,0.7 -1.3,0.7 h -0.7 m 1.3,0.4 c 0.7,0 1.2,-0.3 1.2,-1.1 0,-0.3 -0.2,-0.7 -0.4,-0.8 -0.3,-0.2 -0.6,-0.2 -0.9,-0.2 h -1.7 v 3.9 h 0.5 v -1.7 h 0.8 l 1.1,1.7 h 0.6 l -1.2,-1.8 m -0.4,3.3 c 1.9,0 3.5,-1.5 3.5,-3.5 0,-1.9 -1.5,-3.4 -3.5,-3.4 -1.9,0 -3.5,1.5 -3.5,3.4 0,2 1.5,3.5 3.5,3.5 m 0,-0.6 c -1.6,0 -2.9,-1.2 -2.9,-2.9 0,-1.6 1.3,-2.9 2.9,-2.9 1.6,0 2.9,1.3 2.9,2.9 -0.1,1.7 -1.3,2.9 -2.9,2.9"
         id="path7"
         style="display:none;fill:#f9ff14;fill-opacity:1"
         inkscape:label="r_mark" /></g><path
       style="fill:#f9ff14;stroke-width:0.931909;fill-opacity:1"
       d="m 14.028963,20.46155 c -0.0693,0 -0.24484,-0.143144 -0.39005,-0.318112 l -0.264,-0.318105 0.52523,-1.034243 c 0.28889,-0.568839 0.44915,-1.110347 0.35614,-1.203352 -0.093,-0.09301 -0.42548,0.07175 -0.73881,0.366079 -0.31333,0.294359 -0.75214,0.535201 -0.97512,0.535201 h -0.40542 l 0.0916,-2.272874 0.0916,-2.27288 -0.37912,-0.73315 c -0.20852,-0.403238 -0.47021,-1.050744 -0.58154,-1.438901 l -0.2024,-0.705744 0.60301,-0.524318 c 0.33166,-0.288369 0.60302,-0.6746371 0.60302,-0.8583741 0,-0.183728 0.1878,-0.6206932 0.41735,-0.9710216 l 0.41736,-0.6369673 -0.78835,-0.6488237 -0.78834,-0.648844 0.376,-2.2190951 c 0.20679,-1.2205017 0.48231,-2.4687403 0.61226,-2.7738658 0.12995,-0.3051255 0.44943,-0.5547704 0.70995,-0.5547704 0.2611,0 1.04532,0.6254634 1.74739,1.3936362 l 1.27372,1.3936431 -0.0632,1.3625978 -0.063,1.3626114 0.35518,0.1726243 c 0.19536,0.094957 0.78502,0.3572976 1.31036,0.5829829 l 0.95516,0.4103374 0.46259,-0.4186433 c 0.25443,-0.2302418 0.4626,-0.5542809 0.4626,-0.7200814 0,-0.1657939 0.13869,-0.4164724 0.3082,-0.5570726 0.16952,-0.1405865 1.55061,-0.2894581 3.0691,-0.330822 1.5185,-0.041357 2.82532,-0.010821 2.90405,0.067964 0.0787,0.078744 0.0276,0.4470899 -0.11363,0.8185728 -0.14123,0.3714763 -0.93861,1.385462 -1.77194,2.2532842 l -1.51515,1.5778752 h -1.04304 -1.04302 l -0.20265,0.924626 c -0.11147,0.50854 -0.20703,1.31297 -0.21237,1.787604 l -0.009,0.862984 -1.03897,0.493134 -1.03897,0.493121 -0.009,0.702726 -0.009,0.702711 -0.85687,0.856877 -0.85688,0.856877 -0.49924,-0.158453 -0.49923,-0.158453 -3.1e-4,0.571396 c -1.7e-4,0.314258 -0.26271,0.876515 -0.58345,1.249438 -0.32075,0.37293 -0.63988,0.678063 -0.70921,0.678063 z"
       id="path8" /><path
       id="path12"
       style="fill:#f9ff14;stroke-width:0.664499;fill-opacity:1"
       d="m 239.87653,1.8251682 c -0.22868,0 -0.99395,0.3773889 -1.70047,0.8385578 -0.70651,0.4611622 -1.81549,1.3584484 -2.4645,1.993716 l -1.17988,1.1548195 -1.28257,0.0103 c -0.7054,0.00531 -1.75767,0.1198822 -2.33813,0.2537589 -0.58047,0.1338765 -1.42616,0.2962468 -1.87938,0.3609026 l -0.82413,0.1174435 -2.12868,-1.3093487 -2.12866,-1.3093419 h -0.74103 c -0.4423,0 -0.74104,0.1202145 -0.74104,0.2977221 0,0.1636063 0.43267,0.8229886 0.96183,1.4655857 0.52919,0.642597 1.532,1.5897403 2.22826,2.1046332 l 1.26572,0.9360799 V 9.339893 c 0,0.3300108 -0.1221,0.722363 -0.27161,0.871869 -0.16852,0.16853 -0.64929,0.220381 -1.26505,0.135983 l -0.99342,-0.136329 -0.15796,0.49757 c -0.0867,0.273648 -0.0886,0.714511 -0.005,0.979692 0.0842,0.265176 0.92768,1.055151 1.87456,1.755406 l 1.72176,1.273288 0.94467,1.99715 c 0.51956,1.098444 1.08685,1.997152 1.26092,1.997152 0.17405,0 0.7329,-0.304207 1.24203,-0.675788 0.50914,-0.371575 1.25767,-0.746917 1.66339,-0.834093 0.40571,-0.08718 1.26174,-0.162921 1.90238,-0.167573 0.64061,-0.0046 1.37646,0.123418 1.63521,0.285017 0.25876,0.161573 0.64275,0.227424 0.85332,0.146621 0.21058,-0.08082 0.38289,-0.337725 0.38289,-0.571057 0,-0.233333 0.16421,-0.658665 0.36501,-0.94535 0.20936,-0.298904 0.61182,-0.521266 0.9433,-0.521266 h 0.57779 l 0.27162,-0.595776 0.27127,-0.595783 0.64866,0.142509 0.64902,0.142508 0.60916,-0.965271 c 0.3351,-0.530822 0.77915,-1.030459 0.98691,-1.110179 0.20775,-0.07972 1.42634,-0.02159 2.70796,0.128774 1.28163,0.150396 2.47985,0.189521 2.66264,0.08723 0.18281,-0.1023 0.70485,-0.762041 1.15998,-1.465932 0.4551,-0.70389 0.88935,-1.5220074 0.96492,-1.8182489 0.0756,-0.2962395 0.0628,-0.6128665 -0.0279,-0.7036041 -0.0907,-0.090736 -2.0244,-0.1651674 -4.29717,-0.1651674 h -4.13236 l -0.296,0.8210418 c -0.16285,0.4514739 -0.40802,1.2645076 -0.54495,1.8069176 -0.13692,0.542411 -0.4158,1.153053 -0.61948,1.356728 -0.2329,0.23288 -0.55689,0.314076 -0.87323,0.218741 -0.27664,-0.08338 -0.6053,-0.247619 -0.7304,-0.364677 -0.14439,-0.1351 0.0484,-0.71453 0.52779,-1.586459 0.41534,-0.755509 0.75512,-1.5319563 0.75512,-1.7255311 0,-0.1935816 -0.16595,-0.4895897 -0.36881,-0.6579336 l -0.3688,-0.3059619 -1.21422,0.2544502 c -0.66785,0.140003 -1.30417,0.1697264 -1.41373,0.066249 -0.10957,-0.1034485 -0.13353,-0.3949777 -0.0532,-0.6479799 0.0803,-0.2529935 0.62081,-0.9230876 1.20084,-1.4892738 0.58005,-0.566193 1.31636,-1.5772348 1.63626,-2.2464583 0.31992,-0.6692235 0.5817,-1.4341482 0.5817,-1.7001206 0,-0.3065732 -0.15226,-0.4838349 -0.41585,-0.4838349 z M 238.2286,12.673871 c 0.0141,3.12e-4 0.028,0.0027 0.0416,0.0068 0.14482,0.04745 0.29676,0.368439 0.33755,0.713221 l 0.0741,0.627028 h -0.35336 c -0.19444,0 -0.40769,-0.08742 -0.47353,-0.194013 -0.0659,-0.106606 -0.0586,-0.427572 0.0162,-0.713221 0.0677,-0.258868 0.22144,-0.442915 0.35747,-0.439879 z" /></g></svg>
