<?xml version="1.0" encoding="UTF-8" standalone="no"?>
<!-- Created with Inkscape (http://www.inkscape.org/) -->

<svg
   width="960"
   height="80"
   viewBox="0 0 253.99999 21.166667"
   version="1.1"
   id="svg1"
   xml:space="preserve"
   inkscape:version="1.4.3 (0d15f75, 2025-12-25)"
   sodipodi:docname="Logo_GameBoyAdvance_Pkmn_3.svg"
   xmlns:inkscape="http://www.inkscape.org/namespaces/inkscape"
   xmlns:sodipodi="http://sodipodi.sourceforge.net/DTD/sodipodi-0.dtd"
   xmlns="http://www.w3.org/2000/svg"
   xmlns:svg="http://www.w3.org/2000/svg"><sodipodi:namedview
     id="namedview1"
     pagecolor="#505050"
     bordercolor="#eeeeee"
     borderopacity="1"
     inkscape:showpageshadow="false"
     inkscape:pageopacity="0"
     inkscape:pagecheckerboard="true"
     inkscape:deskcolor="#505050"
     inkscape:document-units="mm"
     inkscape:zoom="2.0186728"
     inkscape:cx="468.12936"
     inkscape:cy="20.062687"
     inkscape:window-width="3440"
     inkscape:window-height="1351"
     inkscape:window-x="2551"
     inkscape:window-y="-9"
     inkscape:window-maximized="1"
     inkscape:current-layer="svg1" /><defs
     id="defs1" /><style
     type="text/css"
     id="style1">
	.st0{fill:#FCD20B;}
	.st1{fill:#ED1C24;}
	.st2{fill:#FFFFFF;}
	.st3{fill:#765241;}
</style><g
     id="g2"
     style="fill:#f9ff14;fill-opacity:1"><g
       id="g1"
       transform="matrix(0.45896038,0,0,0.45896038,34.80028,-0.10327913)"
       inkscape:label="GBA_Logo"
       style="fill:#f9ff14;fill-opacity:1"><path
         fill="#1f00cc"
         d="m 141.1,0.9 c 5.1,0 8.2,2.2 11.2,5.8 1.1,-1 2.2,-1.9 3.5,-2.7 3.1,-2 6.6,-3 10.1,-3 h 47 l -3.1,4.9 59,-0.1 5.4,9.3 4.8,-9.2 h 39.2 l 9.7,7.6 V 5.9 h 73.8 v 35.3 h -68.1 l -9.9,-7.7 v 7.7 h -55.2 v 0 l -3.7,-6.1 c -3,3.4 -8.4,6.1 -17.3,6.1 h -49 c -1.6,1.6 -3.3,1.8 -5.3,1.7 l -0.5,3.2 h -18.9 l 0.4,-2.7 c -0.2,0.1 -0.4,0.3 -0.6,0.4 -4.4,2.7 -9.4,3.6 -14.1,2.5 -3.6,-0.8 -6.8,-2.8 -9.2,-5.4 -3.2,3.1 -7.5,5.2 -11.6,5.2 l -92.9,0.1 -1.5,-8.5 -3.8,8.5 H 25 C 20.1,47 15.2,46.3 10.8,44.1 4.8,40.9 0.8,35.3 0.2,29 -0.9,18.5 3.2,10.1 11.8,4.8 20.1,-0.3 28.9,-1.4 38,1.8 L 39.7,2.4 40.3,1 H 57.7 L 59,8.8 61.6,0.9 h 79.5"
         id="path1"
         style="display:none;fill:#f9ff14;fill-opacity:1"
         inkscape:label="outline" /><path
         fill="#ffffff"
         d="m 246.4,29.6 h -6.2 V 17 h 8.8 c 4.7,0 7,1.9 7,6 0,5 -2.5,6.6 -9.6,6.6 m 43.3,-17.9 h -7.2 l -0.2,0.4 -8.1,14.9 -8.7,-14.9 -0.2,-0.3 h -7.7 l 0.6,1 1.5,2.4 c -2.4,-2.3 -6,-3.5 -10.7,-3.5 h -15.5 v 19.4 l -11.5,-19 -0.2,-0.3 h -5.9 l -0.2,0.3 -13.1,22 -0.6,1 h 5.1 v 0 h 11.4 v -5.2 h -6.7 l 6.7,-12.1 9.5,16.9 0.2,0.3 h 7.6 v 0 h 11.7 c 10.1,0 15.3,-4 15.3,-11.8 0,-1.4 -0.2,-2.6 -0.5,-3.7 l 9.2,15.2 0.2,0.3 h 4.5 l 0.2,-0.3 12.7,-22 0.6,-1"
         id="path2"
         style="fill:#f9ff14;fill-opacity:1" /><polyline
         fill="#ffffff"
         points="334.4,11.7 333.7,11.7 333.7,25.6 316.2,11.9 316,11.7 311.4,11.7 311.4,31.1 299.9,12.1   299.7,11.7 293.8,11.7 293.6,12.1 280.5,34 279.9,35.1 286.9,35.1 286.9,35.1 296.5,35.1 296.5,29.9 289.8,29.9 296.5,17.8   306,34.7 306.2,35.1 313.8,35.1 313.8,35.1 317.6,35.1 317.6,21 335.1,34.9 335.3,35.1 339.9,35.1 339.9,11.7 334.4,11.7 "
         id="polyline2"
         style="fill:#f9ff14;fill-opacity:1" /><path
         fill="#ffffff"
         d="m 362.1,11.7 h -13.7 c -4.8,0 -6.4,1.5 -6.4,5.9 v 11.6 c 0,4.4 1.6,5.9 6.4,5.9 h 13.7 c 4.8,0 6.4,-1.5 6.4,-5.9 v -3.3 h -0.7 -5.4 -0.7 v 3.6 H 348.6 V 17.2 h 13.1 v 3.2 h 0.7 6.1 v -2.8 c 0,-4.5 -1.6,-5.9 -6.4,-5.9"
         id="path3"
         style="fill:#f9ff14;fill-opacity:1" /><polyline
         fill="#ffffff"
         points="395.2,29.6 377.4,29.6 377.4,25.5 388.1,25.5 388.1,20.4 377.4,20.4 377.4,17 395.6,17 395.6,11.7   370.7,11.7 370.7,35.1 395.9,35.1 395.9,29.6 395.2,29.6 "
         id="polyline3"
         style="fill:#f9ff14;fill-opacity:1" /><path
         fill="#ffffff"
         d="m 43.8,23.6 2.9,-6.5 1.3,6.5 H 43.8 M 83.7,6.7 75.9,25 72.6,6.7 h -6.8 l -8.8,27 -4.5,-27 h -8.4 l -12.8,29 1.9,-12.1 H 20.5 l -1,6.2 h 5.3 l -0.6,3.3 C 21.2,34.4 16,34 13.8,30 12.4,27.5 11.1,21.9 17,16.8 c 4.8,-4.2 13.1,-4.9 17.9,-2.7 0,0 0.6,-3.5 1.1,-6.8 C 26.8,4.1 19.6,6.8 14.8,9.7 8.3,13.7 5.2,19.9 6,28.3 7,38 19.5,44.1 30.2,38 c 0.1,-0.1 0.2,-0.1 0.2,-0.1 l -1,2.3 h 7.2 l 4.5,-10 H 49 l 1.7,10 H 62.3 L 68.2,21.6 72,40.2 h 4.6 l 8.9,-20.6 0.9,20.6 h 6.8 L 91.9,6.7 h -8.2"
         id="path4"
         style="fill:#f9ff14;fill-opacity:1" /><polyline
         fill="#ffffff"
         points="93.9,40.1 113,40.1 114.1,32.9 102.1,32.9 103.1,27 113.5,27 114.6,19.8 104.1,19.8 105,13.9   117,13.9 118.1,6.7 99.2,6.7 93.9,40.1 "
         id="polyline4"
         style="fill:#f9ff14;fill-opacity:1" /><polyline
         fill="#ffffff"
         points="187.1,17.6 182.9,6.7 175,6.7 183.1,24.3 180.6,40.1 187.5,40.1 189.6,26.1 201.9,6.7 193.9,6.7   187.1,17.6 "
         id="polyline5"
         style="fill:#f9ff14;fill-opacity:1" /><path
         fill="#ffffff"
         d="m 171.1,26.6 c -1.8,5.5 -6.3,8.7 -9.9,7.1 -3.6,-1.6 -5,-7.4 -3.2,-13 1.8,-5.5 6.3,-8.7 9.9,-7.1 3.7,1.7 5.1,7.5 3.2,13 M 168.5,7 c -7.6,-1.7 -15.5,4.3 -17.6,13.5 -2.1,9.2 2.3,18.1 9.9,19.9 7.6,1.8 15.5,-4.3 17.6,-13.5 C 180.5,17.7 176,8.8 168.5,7"
         id="path5"
         style="fill:#f9ff14;fill-opacity:1" /><path
         fill="#ffffff"
         d="m 138.1,20.1 c -3.8,0 -4.8,0 -4.8,0 l 1.1,-6.2 c 0,0 0.1,0 4.4,0 4.9,0 4,6.2 -0.7,6.2 m -0.8,13.5 c -3.8,0 -6,0 -6,0 l 1.1,-6.6 c 0,0 1.4,0 5.7,0 5.4,-0.1 5.3,6.6 -0.8,6.6 m 4,-26.7 c -3.7,-0.1 -12.8,0 -12.8,0 h 0.1 L 123.3,40 c 0,0 10.9,0 15.4,0 6.3,0 15.6,-9.3 7.2,-17 8.6,-9 0,-16 -4.6,-16.1"
         id="path6"
         style="fill:#f9ff14;fill-opacity:1" /><path
         fill="#ffffff"
         d="m 193.3,36.9 v -1.3 h 1.1 c 0.5,0 0.9,0.1 0.9,0.6 0,0.8 -0.8,0.7 -1.3,0.7 h -0.7 m 1.3,0.4 c 0.7,0 1.2,-0.3 1.2,-1.1 0,-0.3 -0.2,-0.7 -0.4,-0.8 -0.3,-0.2 -0.6,-0.2 -0.9,-0.2 h -1.7 v 3.9 h 0.5 v -1.7 h 0.8 l 1.1,1.7 h 0.6 l -1.2,-1.8 m -0.4,3.3 c 1.9,0 3.5,-1.5 3.5,-3.5 0,-1.9 -1.5,-3.4 -3.5,-3.4 -1.9,0 -3.5,1.5 -3.5,3.4 0,2 1.5,3.5 3.5,3.5 m 0,-0.6 c -1.6,0 -2.9,-1.2 -2.9,-2.9 0,-1.6 1.3,-2.9 2.9,-2.9 1.6,0 2.9,1.3 2.9,2.9 -0.1,1.7 -1.3,2.9 -2.9,2.9"
         id="path7"
         style="display:none;fill:#f9ff14;fill-opacity:1"
         inkscape:label="r_mark" /></g><path
       style="display:inline;fill:#f9ff14;stroke-width:0.607741;fill-opacity:1"
       d="m 231.59853,18.541866 c -0.96765,-0.190952 -0.94587,-1.13269 0.0262,-1.13269 0.22104,0 0.40189,-0.112377 0.40189,-0.249727 0,-0.137343 -0.0589,-0.190849 -0.13083,-0.118892 -0.2723,0.272299 -1.15123,-1.100527 -1.20517,-1.882368 -0.0462,-0.669592 -0.17031,-0.85714 -0.75099,-1.134665 -0.50863,-0.243096 -0.69566,-0.47529 -0.69566,-0.863636 0,-0.292136 0.0603,-0.470787 0.13416,-0.396995 0.0738,0.0738 0.38684,0.0068 0.69566,-0.149006 0.30883,-0.155739 0.70598,-0.239109 0.88258,-0.185264 0.17659,0.05384 -0.12398,-0.29332 -0.66793,-0.771484 -1.45104,-1.275564 -2.27985,-3.8802024 -1.2347,-3.8802024 0.10463,0 0.19023,-0.096327 0.19023,-0.2140522 0,-1.2244891 5.04684,-2.938513 5.67232,-1.9264485 0.24216,0.3918229 0.44912,0.22233 0.84947,-0.695663 0.2182,-0.5003404 0.45347,-0.9578729 0.5228,-1.0167384 0.0693,-0.058826 0.2316,-0.2975984 0.36056,-0.5305272 0.41088,-0.7421006 3.99546,-1.0151647 7.52483,-0.5732217 0.32363,0.040533 0.36265,0.8897025 0.0409,0.8897025 -0.12468,0 -0.16747,0.095805 -0.0951,0.2128979 0.0724,0.1170999 -0.16293,0.5264681 -0.52288,0.9097152 -0.35995,0.3832413 -0.61102,0.812307 -0.55795,0.9534729 0.0555,0.1476143 -0.0271,0.209245 -0.19433,0.1450561 -0.16879,-0.064783 -0.3499,0.074522 -0.43161,0.3319718 -0.0774,0.2439719 -0.23063,0.4435846 -0.34041,0.4435846 -0.1098,0 -0.19963,0.088463 -0.19963,0.1965795 0,0.6352297 -1.70765,1.9439146 -2.53652,1.9439146 h -0.8577 v 1.2197363 c 0,1.211046 -1.16656,2.802288 -2.04139,2.784567 -0.83964,-0.01702 -1.01028,0.07668 -0.88109,0.483743 0.0735,0.231604 0.13744,0.909411 0.14206,1.506231 0.007,0.90353 0.0676,1.06892 0.36239,0.988224 0.73178,-0.200354 2.4888,-0.381242 2.35177,-0.242112 -0.0785,0.07969 0.23457,0.522146 0.69566,0.983246 0.86609,0.866086 1.07957,1.480512 0.51439,1.480512 -0.17819,0 -0.50255,0.11152 -0.72082,0.247831 -0.53452,0.333808 -1.04403,0.103315 -1.36262,-0.616413 -0.53749,-1.214298 -1.4863,-1.547625 -2.24517,-0.788758 -0.16562,0.165628 -0.44057,0.301137 -0.611,0.301137 -0.21987,0 -0.27256,0.148641 -0.18142,0.511778 0.18844,0.750761 -1.24308,1.162499 -2.90294,0.834963 z"
       id="path2-3" /><path
       style="fill:#f9ff14;stroke-width:0.607741;fill-opacity:1"
       d="m 15.706682,19.251968 c -0.248305,-0.34871 -0.45146,-0.739864 -0.45146,-0.869227 0,-0.129364 -0.07306,-0.235202 -0.162274,-0.235202 -0.203221,0 -0.615794,-0.962418 -0.800158,-1.866549 l -0.139853,-0.685817 -0.736921,-0.243206 c -0.825071,-0.272299 -0.82939,-0.280029 -0.500077,-0.895355 l 0.236838,-0.442545 -0.29051,-0.185573 C 12.702484,13.72643 11.871374,13.430417 11.015351,13.170688 l -1.5564168,-0.47224 2.647e-4,-0.227264 C 9.4593479,12.346189 9.6987749,11.965658 9.9912618,11.62556 10.596167,10.922185 10.553871,10.767023 9.6264867,10.287453 9.2613229,10.098617 8.8568834,9.8564322 8.7277211,9.7492625 8.3399367,9.4274881 7.0428955,8.6216909 6.1851182,8.1696464 L 5.3800781,7.745401 V 7.2676316 c 0,-0.2627756 0.088571,-0.6996807 0.1968335,-0.9709032 C 5.6851742,6.0255119 6.0432061,4.958319 6.3725444,3.9251829 L 6.971352,2.0467588 h 0.2777512 c 0.1527591,0 0.277743,0.081845 0.277743,0.1818728 0,0.1000286 0.1872111,0.2690836 0.4160312,0.3756816 0.4086675,0.1903866 3.5115636,2.9452644 4.3938966,3.9010836 0.247312,0.2679162 0.773443,0.7992402 1.16917,1.180725 0.395735,0.3814847 0.85709,0.9592702 1.02523,1.2839685 l 0.305716,0.590366 h -0.205727 c -0.113145,0 -0.259946,0.169055 -0.326236,0.3756806 -0.06628,0.2066331 -0.362599,0.6563791 -0.658486,0.9994431 -0.708493,0.821434 -0.69274,0.871494 0.37438,1.189434 0.501814,0.149511 1.086002,0.335066 1.298217,0.412346 l 0.385831,0.140509 -0.45821,0.491827 -0.458212,0.491827 0.119317,0.310914 c 0.06561,0.171 0.267243,0.310914 0.448051,0.310914 0.180816,0 0.328758,0.09661 0.328758,0.214673 0,0.744409 0.405301,0.01125 0.525469,-0.950562 0.08009,-0.640881 0.384964,-1.824287 0.677517,-2.629792 0.292561,-0.805506 0.58125,-1.995877 0.641525,-2.6452789 0.06031,-0.6493951 0.151675,-1.3857346 0.203121,-1.6363064 L 17.825749,6.1804981 15.431354,6.0253116 13.036961,5.870125 12.720024,5.5531817 12.403081,5.2362449 12.702095,4.9646758 C 13.175381,4.5348266 14.556327,4.2250061 16.715572,4.0642347 18.809668,3.9083184 18.916516,3.8136323 17.509326,3.3608406 15.642832,2.760265 14.565262,2.2309896 14.439219,1.8528839 l -0.09017,-0.2705422 2.760865,0.1022706 c 1.518481,0.056278 3.195588,0.2047541 3.726915,0.3300218 0.531326,0.1252677 1.545676,0.341131 2.254112,0.4797021 l 1.288056,0.2519511 0.644039,0.4397306 c 1.016775,0.6942408 1.421347,1.1908206 1.652633,2.0284818 l 0.215094,0.7790083 0.622545,0.5815418 0.622537,0.5815409 v 0.7931266 0.7931201 l -0.368306,0.6234875 c -0.202559,0.3429181 -0.436401,0.6234817 -0.519635,0.6234817 -0.08323,0 -0.209799,0.2661964 -0.281252,0.5915454 l -0.129931,0.591539 0.325217,1.072206 c 0.178872,0.589716 0.326269,1.337869 0.327552,1.662567 l 0.0024,0.59036 0.375688,0.03379 c 0.206621,0.0186 0.511552,0.02679 0.677615,0.01824 0.95751,-0.04934 1.091446,0.973019 0.342097,2.611276 -0.295185,0.64533 -0.536696,1.227083 -0.536696,1.292793 0,0.264391 -0.955276,1.196106 -1.22635,1.196106 -0.331374,0 -0.70027,-0.832137 -0.547229,-1.234389 0.15122,-0.397456 -0.105375,-0.328471 -0.870535,0.234036 -0.375862,0.276309 -1.021491,0.636165 -1.43475,0.799671 l -0.751368,0.297296 -1.61008,0.0055 -1.610073,0.0055 -1.004654,-0.292032 c -0.552565,-0.160614 -1.200609,-0.474579 -1.440102,-0.6977 -0.599313,-0.558343 -0.761645,-0.513194 -0.999359,0.277927 -0.112963,0.375973 -0.316208,0.718823 -0.451633,0.761888 l -0.246237,0.0783 z"
       id="path5-1" /></g></svg>
